<?xml version="1.0" standalone="no"?>
<!DOCTYPE svg PUBLIC "-//W3C//DTD SVG 20010904//EN"
 "http://www.w3.org/TR/2001/REC-SVG-20010904/DTD/svg10.dtd">
<svg version="1.0" xmlns="http://www.w3.org/2000/svg"
 width="500.000000pt" height="500.000000pt" viewBox="0 0 500.000000 500.000000"
 preserveAspectRatio="xMidYMid meet">
<metadata>
Created by potrace 1.14, written by Peter Selinger 2001-2017
</metadata>
<g transform="translate(0.000000,500.000000) scale(0.100000,-0.100000)"
fill="#000000" stroke="none">
<path d="M1754 4287 c-59 -23 -103 -61 -128 -114 l-26 -51 0 -829 c-1 -711 -3
-825 -15 -809 -8 10 -83 105 -167 212 -133 168 -160 197 -205 220 -157 79
-336 -38 -327 -214 3 -63 28 -108 111 -209 32 -38 69 -84 83 -103 14 -18 32
-41 40 -51 26 -31 95 -118 250 -314 83 -104 157 -198 166 -208 77 -93 184
-232 225 -293 48 -72 158 -190 209 -226 14 -10 44 -31 66 -47 59 -42 131 -77
216 -105 191 -64 373 -68 590 -12 47 13 149 60 220 103 193 116 337 296 412
516 48 140 51 196 51 894 -1 637 -2 649 -22 693 -38 81 -116 133 -200 132
-100 0 -189 -65 -221 -161 -7 -19 -12 -92 -12 -163 0 -117 -2 -129 -17 -126
-15 3 -17 24 -19 216 -1 143 -5 217 -13 225 -6 6 -11 18 -11 27 0 22 -55 77
-103 102 -104 54 -246 6 -302 -102 -22 -43 -23 -57 -24 -273 -1 -182 -2 -198
-18 -195 -16 3 -18 25 -19 248 -1 225 -3 249 -22 290 -34 73 -102 119 -186
125 -99 7 -175 -37 -220 -127 -26 -52 -26 -54 -26 -295 0 -225 -1 -243 -17
-243 -17 0 -18 33 -19 553 l-1 552 -23 48 c-48 101 -174 152 -276 114z"/>
<path d="M2620 740 l-25 -6 -2 -187 -1 -187 34 0 c38 0 36 -4 36 95 0 82 7 99
48 113 49 18 60 -3 60 -114 l0 -94 35 0 c21 0 35 5 36 13 1 6 1 54 1 106 0 77
-3 98 -19 120 -24 31 -88 40 -132 18 l-29 -15 1 69 c2 72 -2 80 -43 69z"/>
<path d="M2342 720 c-36 -22 -52 -48 -52 -86 0 -31 51 -84 125 -129 49 -30 62
-49 47 -72 -11 -18 -65 -22 -107 -7 -43 14 -57 6 -53 -30 4 -31 98 -52 159
-36 67 18 100 83 70 138 -7 13 -45 44 -84 69 -66 42 -87 59 -87 73 0 31 59 45
105 26 31 -13 32 -13 42 15 10 26 9 31 -10 41 -37 20 -120 19 -155 -2z"/>
<path d="M1382 703 c3 -26 6 -28 50 -28 25 0 49 -3 53 -7 4 -3 7 -74 7 -157
l0 -151 37 0 36 0 -1 148 c0 81 1 152 3 158 3 7 27 10 64 9 60 -2 67 2 53 39
-5 14 -29 16 -156 16 l-149 0 3 -27z"/>
<path d="M1775 623 c-31 -7 -38 -19 -31 -48 5 -20 11 -25 26 -20 52 16 100 8
100 -18 0 -9 -14 -14 -44 -14 -52 -1 -77 -13 -95 -46 -40 -75 43 -151 121
-111 22 11 33 13 41 5 6 -6 20 -11 32 -11 19 0 20 5 19 98 0 54 -6 107 -13
120 -22 42 -89 61 -156 45z m95 -169 c0 -13 -9 -28 -19 -34 -19 -10 -61 -14
-61 -6 0 2 -3 11 -6 19 -8 21 20 43 55 43 26 0 31 -4 31 -22z"/>
<path d="M2004 440 c1 -104 4 -191 8 -195 4 -4 19 -4 35 -1 27 6 28 9 27 59
l-1 53 54 1 c45 0 59 5 84 29 95 91 29 258 -95 240 -57 -8 -68 -9 -92 -3 -21
5 -21 3 -20 -183z m160 108 c9 -12 16 -38 16 -58 -1 -57 -38 -88 -85 -70 -22
8 -24 14 -23 67 1 32 5 64 11 71 16 20 64 14 81 -10z"/>
<path d="M2933 620 c-25 -10 -26 -13 -17 -48 5 -18 11 -21 28 -16 50 16 96 6
96 -21 0 -8 -10 -13 -27 -13 -16 0 -43 -2 -61 -6 -60 -14 -79 -98 -31 -142 26
-23 92 -24 117 0 17 15 20 15 25 1 4 -8 17 -15 30 -15 23 0 23 1 22 105 -1
100 -3 107 -27 132 -21 20 -38 27 -80 30 -29 1 -63 -1 -75 -7z m109 -149 c13
-2 1 -34 -17 -47 -24 -18 -49 -18 -64 0 -23 28 7 57 54 50 11 -1 23 -3 27 -3z"/>
<path d="M3183 617 c-4 -7 -8 -67 -8 -134 l0 -123 36 0 36 0 -2 73 c-1 39 2
79 6 88 4 8 26 24 49 34 27 12 39 23 35 33 -3 7 -5 18 -5 23 0 15 -27 10 -64
-11 -34 -18 -35 -19 -41 0 -7 23 -32 33 -42 17z"/>
<path d="M3435 620 c-65 -26 -94 -122 -60 -194 27 -57 105 -86 177 -65 55 15
61 22 47 52 -9 20 -16 24 -24 17 -7 -6 -32 -12 -55 -14 -36 -3 -48 1 -69 23
l-26 26 93 3 92 3 0 35 c0 91 -89 150 -175 114z m86 -60 c26 -14 24 -38 -3
-42 -63 -9 -102 17 -60 41 22 13 39 13 63 1z"/>
</g>
</svg>
